<svg xmlns="http://www.w3.org/2000/svg" width="23.76" height="23.76" viewBox="0 0 23.76 23.76"><path d="M19.8,0H3.96A3.97,3.97,0,0,0,0,3.96V19.8a3.972,3.972,0,0,0,3.96,3.96H19.8a3.972,3.972,0,0,0,3.96-3.96V3.96A3.972,3.972,0,0,0,19.8,0ZM17.635,16.686a3.088,3.088,0,0,1-.914,1.222,4.666,4.666,0,0,1-1.591.812,7.836,7.836,0,0,1-2.31.3H6.453V5.162h6.734a4.8,4.8,0,0,1,2.99.851A3.037,3.037,0,0,1,17.3,8.6a3.074,3.074,0,0,1-.513,1.792,3.286,3.286,0,0,1-1.465,1.144v.046a3,3,0,0,1,1.931,1.2,4.068,4.068,0,0,1,.651,2.363,3.962,3.962,0,0,1-.3,1.513l.025.027Zm-2.748-3.416a2.443,2.443,0,0,0-1.713-.552H8.9v4.324h4.291a2.4,2.4,0,0,0,1.713-.574,2.125,2.125,0,0,0,.614-1.624,2.032,2.032,0,0,0-.614-1.574h-.017Zm-.594-2.795a1.768,1.768,0,0,0,.584-1.43,1.8,1.8,0,0,0-.525-1.475,2.352,2.352,0,0,0-1.513-.429H8.879v3.824h3.96a2.182,2.182,0,0,0,1.449-.491Z" fill="#8411fa"/></svg>