<svg xmlns="http://www.w3.org/2000/svg" width="19.148" height="21.144" viewBox="0 0 19.148 21.144"><path d="M22.058,18.869l-8.607,4.847V19.941L18.814,17l3.244,1.865Zm.589-.531V8.2L19.5,10.01v6.516Zm-18.559.531L12.7,23.716V19.941L7.333,17,4.088,18.869ZM3.5,18.338V8.2l3.15,1.81v6.516L3.5,18.338ZM3.868,7.544,12.7,2.572v3.65L7.04,9.319,7,9.344l-3.129-1.8Zm18.411,0L13.451,2.572v3.65l5.655,3.1.043.025,3.129-1.8ZM12.7,19.082,7.4,16.186V10.447L12.7,13.489v5.594Zm.755,0,5.291-2.9V10.447l-5.291,3.042v5.594Zm-5.688-9.3,5.311-2.909,5.311,2.909-5.311,3.054Z" transform="translate(-3.499 -2.572)" fill="#b2e2fc"/></svg>