<svg xmlns="http://www.w3.org/2000/svg" width="23.841" height="23.841" viewBox="0 0 23.841 23.841"><path d="M0,11.921V23.841H23.841V0H0Zm19.213-.95a2.964,2.964,0,0,1,1.491.859,3.854,3.854,0,0,1,.571.765c.008.03-1.029.725-1.657,1.116-.023.015-.114-.083-.216-.234a1.352,1.352,0,0,0-1.121-.674c-.723-.05-1.188.329-1.184.961a.874.874,0,0,0,.1.447c.159.329.455.526,1.381.927,1.708.735,2.438,1.219,2.892,1.907a3.46,3.46,0,0,1,.276,2.907,3.191,3.191,0,0,1-2.637,1.887,7.275,7.275,0,0,1-1.816-.018,4.384,4.384,0,0,1-2.426-1.265,4.2,4.2,0,0,1-.621-.919,1.571,1.571,0,0,1,.219-.14c.107-.061.508-.292.886-.512l.685-.4.144.213a3.2,3.2,0,0,0,.9.866,2.212,2.212,0,0,0,2.32-.117,1.034,1.034,0,0,0,.132-1.321c-.185-.264-.563-.487-1.638-.954a5.9,5.9,0,0,1-2.244-1.381A3.144,3.144,0,0,1,15,14.7a4.8,4.8,0,0,1-.042-1.521A2.9,2.9,0,0,1,17.4,10.918a6.034,6.034,0,0,1,1.809.053Zm-5.6,1,.008.976h-3.1V21.76h-2.2V12.943h-3.1v-.958A9.528,9.528,0,0,1,5.249,11c.012-.016,1.9-.024,4.189-.02l4.167.012Z" fill="#3178c6"/></svg>