<svg xmlns="http://www.w3.org/2000/svg" width="29.7" height="22.277" viewBox="0 0 29.7 22.277"><path d="M14.007,17.967C13.993,17.995,13.98,18.017,14.007,17.967ZM25.569,13.93a6.087,6.087,0,0,0-2.692.626,5.716,5.716,0,0,1-.6-1.4,3.729,3.729,0,0,1-.051-1.174,9.887,9.887,0,0,1,.353-1.262c0-.051-.065-.306-.664-.311s-1.114.116-1.174.274a5.7,5.7,0,0,0-.246.886,21.5,21.5,0,0,1-1.814,3.494,3.6,3.6,0,0,1-.413-1.021,3.729,3.729,0,0,1-.051-1.174,9.887,9.887,0,0,1,.353-1.262c0-.051-.065-.306-.663-.311s-1.114.116-1.174.274-.125.529-.246.886-1.573,3.587-1.953,4.427c-.195.427-.362.77-.483,1-.019.037-.032.06-.042.079.014-.023.023-.046.023-.037-.1.2-.162.311-.162.311v0c-.079.149-.167.283-.209.283a1.925,1.925,0,0,1,.014-.923c.218-1.123.733-2.868.729-2.928,0-.032.1-.334-.339-.5a.546.546,0,0,0-.613.1c-.037,0-.065.093-.065.093s.469-1.968-.9-1.968a4.084,4.084,0,0,0-2.626,1.787c-.367.2-1.16.631-2,1.091l-.961.529c-.023-.023-.042-.046-.065-.07-1.661-1.773-4.727-3.026-4.6-5.406.046-.868.348-3.146,5.9-5.912,4.548-2.265,8.184-1.643,8.81-.26.9,1.972-1.944,5.643-6.667,6.172A3.555,3.555,0,0,1,7.3,9.581c-.246-.274-.283-.288-.376-.237-.153.084-.056.325,0,.469a2.8,2.8,0,0,0,1.707,1.341,9.042,9.042,0,0,0,5.53-.548c2.867-1.1,5.1-4.181,4.444-6.757C17.937,1.233,13.6.374,9.493,1.831A20.642,20.642,0,0,0,2.5,5.841C.242,7.957-.119,9.8.029,10.57c.529,2.733,4.3,4.515,5.8,5.833-.074.042-.144.079-.209.116C4.868,16.895,2,18.4,1.277,19.986c-.812,1.8.135,3.091.756,3.267a4.633,4.633,0,0,0,4.992-2.023,5.024,5.024,0,0,0,.446-4.617c0-.014-.014-.023-.019-.037.195-.116.394-.232.594-.348.385-.227.761-.436,1.09-.617a7.208,7.208,0,0,0-.39,1.977,4.108,4.108,0,0,0,.886,2.863.974.974,0,0,0,.714.232c.64,0,.928-.529,1.248-1.16.394-.77.743-1.666.743-1.666s-.436,2.422.756,2.422c.436,0,.872-.562,1.067-.849v0s.009-.019.032-.056c.046-.07.07-.111.07-.111v-.014c.176-.3.562-.993,1.141-2.135.752-1.476,1.471-3.318,1.471-3.318a9.339,9.339,0,0,0,.288,1.2,11.209,11.209,0,0,0,.622,1.392c-.176.241-.283.381-.283.381a.014.014,0,0,0,0,.009c-.139.186-.3.385-.459.58A16.38,16.38,0,0,0,15.654,19.1a.474.474,0,0,0,.13.636,1.128,1.128,0,0,0,.728.116A3.218,3.218,0,0,0,17.6,19.6a3.815,3.815,0,0,0,.937-.492,2.1,2.1,0,0,0,.9-1.847,3.843,3.843,0,0,0-.339-1.309c.051-.074.107-.153.158-.232a24.669,24.669,0,0,0,1.628-2.813,9.339,9.339,0,0,0,.288,1.2A8.186,8.186,0,0,0,21.7,15.3a5.1,5.1,0,0,0-1.582,2.047c-.343.988-.074,1.434.432,1.536a1.557,1.557,0,0,0,.794-.162,3.687,3.687,0,0,0,1-.515,2.242,2.242,0,0,0,1.1-1.838,3.452,3.452,0,0,0-.251-1.086,5.664,5.664,0,0,1,2.881-.334c2.584.3,3.09,1.917,2.992,2.589a1.716,1.716,0,0,1-.821,1.16c-.181.111-.237.153-.223.237.023.121.107.116.26.088a2.016,2.016,0,0,0,1.406-1.8c.074-1.578-1.443-3.313-4.13-3.3ZM5.652,20.644c-.853.933-2.051,1.285-2.565.988-.552-.321-.334-1.694.719-2.688a13.75,13.75,0,0,1,2.014-1.5c.125-.074.306-.186.529-.32.037-.023.056-.032.056-.032.042-.028.088-.051.135-.079a3.7,3.7,0,0,1-.886,3.634ZM11.887,16.4c-.3.729-.923,2.585-1.3,2.487-.325-.084-.524-1.5-.065-2.891a6.4,6.4,0,0,1,1.016-1.861c.468-.524.983-.691,1.1-.483A9.4,9.4,0,0,1,11.887,16.4Zm5.151,2.46c-.125.065-.241.107-.3.074s.051-.111.051-.111.645-.691.9-1.007c.149-.186.32-.4.505-.645,0,.023,0,.046,0,.074a2.152,2.152,0,0,1-1.166,1.615Zm3.971-.9c-.093-.065-.079-.283.232-.961a3.607,3.607,0,0,1,.882-1.137,1.679,1.679,0,0,1,.088.5,1.636,1.636,0,0,1-1.2,1.6Z" transform="translate(0 -1.125)" fill="#c69"/></svg>