<svg xmlns="http://www.w3.org/2000/svg" width="29.803" height="20.866" viewBox="0 0 29.803 20.866"><path d="M16.292,11.763H13.214V9h3.078Zm0-9.513H13.214V5.076h3.078Zm3.641,6.743H16.855v2.766h3.078V8.993ZM12.655,5.635H9.577v2.8h3.078Zm3.637,0H13.214v2.8h3.078Zm12.889,4.656a5.452,5.452,0,0,0-3.4-.391,4.5,4.5,0,0,0-1.914-2.966L23.211,6.5l-.433.652a4.721,4.721,0,0,0-.172,4.833,4.684,4.684,0,0,1-2.254.5H.111A9.776,9.776,0,0,0,2.16,20.033c1.728,2.044,4.317,3.083,7.7,3.083,7.329,0,12.754-3.376,15.292-9.508A4.291,4.291,0,0,0,29.4,11.5c.07-.116.307-.615.4-.8l-.619-.414Zm-23.8-1.3H2.309v2.766H5.386V8.993Zm3.637,0H5.941v2.766H9.019V8.993Zm3.637,0H9.577v2.766h3.078V8.993ZM9.019,5.635H5.941v2.8H9.019Z" transform="translate(0.003 -2.25)" fill="#269fc6"/></svg>