<svg xmlns="http://www.w3.org/2000/svg" width="19.525" height="19.525" viewBox="0 0 19.525 19.525"><path d="M0,0H19.525V19.525H0ZM17.925,14.868c-.142-.891-.722-1.639-2.443-2.337-.6-.281-1.264-.476-1.462-.927a.961.961,0,0,1-.037-.574.932.932,0,0,1,1.232-.537,1.323,1.323,0,0,1,.794.732c.841-.55.841-.55,1.428-.915a3.358,3.358,0,0,0-.477-.635,2.732,2.732,0,0,0-2.306-.841l-.574.072a2.622,2.622,0,0,0-1.391.818,2.552,2.552,0,0,0,.463,3.637c1.11.83,2.734,1.012,2.942,1.794.2.952-.708,1.257-1.6,1.147a2.142,2.142,0,0,1-1.428-1.087l-1.489.855a3.29,3.29,0,0,0,.659.9c1.416,1.429,4.954,1.355,5.59-.817a2.753,2.753,0,0,0,.06-1.342l.037.055ZM10.617,8.974H8.788c0,1.577-.007,3.143-.007,4.722A7.7,7.7,0,0,1,8.669,15.9c-.268.561-.96.489-1.274.39a1.57,1.57,0,0,1-.675-.7.7.7,0,0,0-.1-.159l-1.485.915a2.877,2.877,0,0,0,1.077,1.234,3.58,3.58,0,0,0,2.609.329,2.285,2.285,0,0,0,1.473-1.148,5.638,5.638,0,0,0,.323-2.722c.01-1.671,0-3.343,0-5.027l0-.046Z" fill="#edf32f"/></svg>