<svg xmlns="http://www.w3.org/2000/svg" width="20.805" height="23.466" viewBox="0 0 20.805 23.466"><path d="M10.447,23.751a1.824,1.824,0,0,1-.9-.242l-2.873-1.7c-.428-.242-.219-.326-.079-.373a5.659,5.659,0,0,0,1.3-.591.21.21,0,0,1,.214.019l2.207,1.308a.27.27,0,0,0,.265,0l8.6-4.964a.276.276,0,0,0,.13-.233V7.048a.277.277,0,0,0-.135-.237l-8.6-4.959a.27.27,0,0,0-.265,0L1.721,6.815a.272.272,0,0,0-.135.237v9.923a.257.257,0,0,0,.135.228l2.356,1.36c1.281.638,2.063-.112,2.063-.871V7.9a.246.246,0,0,1,.251-.247h1.09a.249.249,0,0,1,.251.247v9.8A2.384,2.384,0,0,1,5.185,20.38a3.657,3.657,0,0,1-1.979-.54L.953,18.54a1.811,1.811,0,0,1-.9-1.569V7.048a1.816,1.816,0,0,1,.9-1.569L9.544.515a1.885,1.885,0,0,1,1.807,0l8.6,4.968a1.811,1.811,0,0,1,.9,1.569v9.923a1.822,1.822,0,0,1-.9,1.569l-8.6,4.964A1.811,1.811,0,0,1,10.447,23.751Zm6.943-9.783c0-1.858-1.257-2.352-3.9-2.7-2.673-.354-2.943-.535-2.943-1.159,0-.517.228-1.206,2.207-1.206,1.765,0,2.417.382,2.687,1.574a.249.249,0,0,0,.242.2H16.8a.243.243,0,0,0,.182-.079.259.259,0,0,0,.065-.191c-.172-2.053-1.537-3.008-4.293-3.008-2.454,0-3.916,1.034-3.916,2.771,0,1.881,1.457,2.4,3.809,2.636,2.817.275,3.036.689,3.036,1.243,0,.959-.773,1.369-2.584,1.369-2.277,0-2.775-.573-2.943-1.7a.246.246,0,0,0-.247-.21H8.8a.245.245,0,0,0-.247.247c0,1.448.787,3.176,4.554,3.176,2.719,0,4.284-1.08,4.284-2.952Z" transform="translate(-0.049 -0.285)" fill="#5fa04f"/></svg>