<svg xmlns="http://www.w3.org/2000/svg" width="125" height="125" viewBox="0 0 125 125"><g transform="translate(-187 -201)"><circle cx="62.5" cy="62.5" r="62.5" transform="translate(187 201)" fill="#16161a"/><path d="M0-6.292C26.51-6.292,48,21.49,48,48h0c0,26.51-21.49,53.44-48,53.44Z" transform="translate(297.589 270) rotate(90)" fill="#09f"/><path d="M1-5.279V100.427a39.855,39.855,0,0,0,17.228-4.5,47.34,47.34,0,0,0,7.984-5.187,53.221,53.221,0,0,0,6.972-6.733,57.358,57.358,0,0,0,5.76-7.963A58.242,58.242,0,0,0,43.3,67.172a55.667,55.667,0,0,0,2.748-9.456A50.818,50.818,0,0,0,47,48a51.374,51.374,0,0,0-.957-9.754,57.154,57.154,0,0,0-2.749-9.555A60.135,60.135,0,0,0,33.178,11.559,54.263,54.263,0,0,0,26.2,4.67,47.514,47.514,0,0,0,18.218-.652,39.025,39.025,0,0,0,1-5.279M0-6.292C26.51-6.292,48,21.49,48,48S26.51,101.44,0,101.44Z" transform="translate(297.589 270) rotate(90)" fill="#09f"/><path d="M0-6.292C26.51-6.292,48,21.49,48,48h0c0,26.51-21.49,53.44-48,53.44Z" transform="translate(202.441 257) rotate(-90)" fill="#454546"/><path d="M1-5.279V100.427a39.855,39.855,0,0,0,17.228-4.5,47.34,47.34,0,0,0,7.984-5.187,53.221,53.221,0,0,0,6.972-6.733,57.358,57.358,0,0,0,5.76-7.963A58.242,58.242,0,0,0,43.3,67.172a55.667,55.667,0,0,0,2.748-9.456A50.818,50.818,0,0,0,47,48a51.374,51.374,0,0,0-.957-9.754,57.154,57.154,0,0,0-2.749-9.555A60.135,60.135,0,0,0,33.178,11.559,54.263,54.263,0,0,0,26.2,4.67,47.514,47.514,0,0,0,18.218-.652,39.025,39.025,0,0,0,1-5.279M0-6.292C26.51-6.292,48,21.49,48,48S26.51,101.44,0,101.44Z" transform="translate(202.441 257) rotate(-90)" fill="#454546"/><circle cx="28.5" cy="28.5" r="28.5" transform="translate(221 235)" fill="#16161a"/><path d="M28.5,1A27.508,27.508,0,0,0,17.8,53.839,27.507,27.507,0,0,0,39.2,3.161,27.327,27.327,0,0,0,28.5,1m0-1A28.5,28.5,0,1,1,0,28.5,28.5,28.5,0,0,1,28.5,0Z" transform="translate(221 235)" fill="#16161a"/><text transform="translate(231 281)" fill="#fff" font-size="50" font-family="Montserrat-Bold, Montserrat" font-weight="700"><tspan x="0" y="0">K</tspan></text><path d="M38.583.5H27.862L16.869-13,12.7-8.649V.5H3.65v-36H12.7v15.6L27.485-35.5H37.847L22.858-19.374ZM28.338-.5h8.179L21.542-19.426,35.553-34.5H27.915L11.7-17.4V-34.5H4.65v34H11.7V-9.051L16.931-14.5Z" transform="translate(231 281)" fill="#16161a"/></g></svg>